<svg width="305" height="66" viewBox="0 0 305 66" fill="none" xmlns="http://www.w3.org/2000/svg">
<g filter="url(#filter0_di_5_5)">
<path d="M6.40234 44V2.98438H12.9648V37.5547H28.4336V44H6.40234Z" fill="white"/>
<path d="M31.6562 35.3867V11.5391H37.9844V34.6836C37.9844 35.9336 38.6094 36.8906 39.8594 37.5547C40.5234 37.9062 41.2656 38.082 42.0859 38.082V44.293C38.2969 44.293 35.3477 42.8086 33.2383 39.8398C32.1836 38.3164 31.6562 36.832 31.6562 35.3867ZM44.6641 44.293V38.082C46.6172 38.082 47.9062 37.3203 48.5312 35.7969C48.6875 35.4062 48.7656 35.0352 48.7656 34.6836V11.5391H55.0938V35.3867C55.0938 37.2227 54.2734 39.0391 52.6328 40.8359C50.4844 43.1016 47.8281 44.2539 44.6641 44.293Z" fill="white"/>
<path d="M59.5469 35.1523C59.5469 37.1836 60.3477 39.0781 61.9492 40.8359C63.9023 42.9453 66.4805 44 69.6836 44V38.0234C67.6523 38.0234 66.3828 37.3398 65.875 35.9727C65.7578 35.6992 65.6992 35.4258 65.6992 35.1523V20.4453C65.6992 19.3906 66.2656 18.5703 67.3984 17.9844C68.0625 17.6328 68.8242 17.457 69.6836 17.457V11.5391C65.8555 11.5391 62.9648 13.0625 61.0117 16.1094C60.0742 17.5547 59.5859 18.9609 59.5469 20.3281V35.1523ZM72.3203 17.5156C74.1953 17.5156 75.3281 18.3945 75.7188 20.1523C75.7969 20.4648 75.8359 20.7773 75.8359 21.0898V22.7305L81.5781 20.5625C81.5781 17.6719 80.4062 15.3086 78.0625 13.4727C76.3438 12.1836 74.4297 11.5391 72.3203 11.5391V17.5156ZM72.3203 44.0586C75.0938 44.1367 77.5352 43.1016 79.6445 40.9531C81.4023 39.1562 82.2812 37.1641 82.2812 34.9766L76.5391 32.8086V34.3906C76.3438 36.8125 74.9375 38.043 72.3203 38.082V44.0586Z" fill="white"/>
<path d="M86.0312 44V2.33984H92.4766V44H86.0312ZM94.0586 27.6523L103.844 11.5391H110.992L101.031 27.6523L111.051 44H103.961L94.0586 27.6523Z" fill="white"/>
<path d="M112.574 11.5391H119.254L127.633 36.9102L121.48 55.4258H115.035L120.836 36.793L112.574 11.5391ZM125.875 22.4961L129.918 11.5391H136.539L129.273 31.6953H128.629L125.875 22.4961Z" fill="white"/>
<path d="M138.062 34.7422L143.98 32.6328C144.215 35.1719 145.602 36.9297 148.141 37.9062C148.609 38.0625 148.844 38.1406 148.844 38.1406V44.1758C145.484 44.1758 142.633 42.7305 140.289 39.8398C138.844 38.0039 138.102 36.3047 138.062 34.7422ZM138.531 14.1172C138.531 9.85938 140.367 6.65625 144.039 4.50781C145.758 3.53125 147.359 3.02344 148.844 2.98438V9.13672C147.633 9.33203 146.578 10.0352 145.68 11.2461C145.094 12.1055 144.801 13.0234 144.801 14C144.801 16.0312 146.266 17.6523 149.195 18.8633C149.898 19.1367 150.992 19.5078 152.477 19.9766C154.352 20.5625 155.66 21.0312 156.402 21.3828C159.801 23.0625 162.008 25.0547 163.023 27.3594C163.609 28.7266 163.902 30.2305 163.902 31.8711C163.902 35.3086 162.574 38.2969 159.918 40.8359C157.535 43.0625 154.859 44.1758 151.891 44.1758V38.1406C153.375 38.0625 154.703 37.3594 155.875 36.0312C156.852 34.8594 157.34 33.5117 157.34 31.9883C157.34 29.6055 155.68 27.8086 152.359 26.5977C151.656 26.3242 150.562 25.9727 149.078 25.543C147.438 25.0742 146.324 24.7031 145.738 24.4297C142.457 22.9844 140.348 21.1289 139.41 18.8633C138.824 17.4961 138.531 15.9141 138.531 14.1172ZM151.891 9.13672V2.98438C155.25 2.98438 158.062 4.42969 160.328 7.32031C161.539 8.88281 162.184 10.3086 162.262 11.5977L156.227 13.5898C156.07 12.418 155.621 11.4609 154.879 10.7188C154.176 9.97656 153.512 9.52734 152.887 9.37109L151.891 9.13672Z" fill="white"/>
<path d="M166.188 17.75V11.7148H170.172V2.33984H176.383V11.7148H180.25V17.8086H176.383L176.441 34.0391C176.52 36.3828 177.691 37.5742 179.957 37.6133H181.188L182.594 44H179.84C174.879 44 171.852 42.1055 170.758 38.3164C170.367 36.9492 170.172 35.3281 170.172 33.4531V17.75H166.188Z" fill="white"/>
<path d="M185.465 44V11.5391H191.793V15.582C192.887 13.8633 194.527 12.6328 196.715 11.8906C197.73 11.5391 198.727 11.3633 199.703 11.3633H201.227L199.762 17.5156C197.457 17.5547 195.445 18.668 193.727 20.8555C192.438 22.5352 191.793 24.2734 191.793 26.0703V44H185.465Z" fill="white"/>
<path d="M204.215 35.1523V20.2695C204.293 18.3555 205.172 16.5 206.852 14.7031C208.922 12.6328 211.422 11.5781 214.352 11.5391V17.3984C212.828 17.3984 211.676 18.082 210.895 19.4492C210.621 19.918 210.484 20.3477 210.484 20.7383V24.2539H221.617V20.7969C221.617 19.1562 220.719 18.082 218.922 17.5742C218.414 17.418 217.906 17.3398 217.398 17.3398V11.5391C220.172 11.5391 222.633 12.4961 224.781 14.4102C226.578 16.1289 227.496 18.0625 227.535 20.2109V30.2891H210.484V35.1523C210.484 36.168 211.051 37.0078 212.184 37.6719C212.887 38.0625 213.648 38.2578 214.469 38.2578V44C210.836 44 207.965 42.5352 205.855 39.6055C204.762 38.0039 204.215 36.5195 204.215 35.1523ZM217.398 44V38.1992C219.664 38.1992 221.227 37.2422 222.086 35.3281C222.203 35.0547 222.301 34.8008 222.379 34.5664L227.594 36.4414C226.891 39.0977 225.309 41.1484 222.848 42.5938C221.168 43.5312 219.352 44 217.398 44Z" fill="white"/>
<path d="M231.52 36.4414C231.52 38.6289 232.574 40.4844 234.684 42.0078C236.52 43.3359 238.707 44 241.246 44V38.1992C238.355 38.1602 236.891 37.1445 236.852 35.1523V33.9219C236.891 33.1406 237.125 32.5938 237.555 32.2812C237.867 32.0469 239.703 31.4805 243.062 30.582C245.406 29.957 247.047 29.3906 247.984 28.8828V34.6836C247.984 36.5586 247.105 37.6914 245.348 38.082C244.996 38.1602 244.625 38.1992 244.234 38.1992V44C246.812 43.9609 248.883 43.2969 250.445 42.0078C251.812 43.3359 253.531 44 255.602 44V38.1406C254.586 38.0625 254.059 37.4375 254.02 36.2656V20.5039C254.02 18.1602 253.082 16.0703 251.207 14.2344C249.332 12.3984 246.988 11.4805 244.176 11.4805V17.2227C245.934 17.2227 247.105 17.9453 247.691 19.3906C247.887 19.8594 247.984 20.3477 247.984 20.8555V22.0859C247.984 23.1016 245.836 24.2734 241.539 25.6016C237.477 26.8516 235.172 27.6328 234.625 27.9453C232.594 29.1562 231.559 31.0312 231.52 33.5703V36.4414ZM231.988 19.625L237.379 21.6758C237.379 19.4492 238.238 18.043 239.957 17.457C240.387 17.3008 240.816 17.2227 241.246 17.2227V11.4805C238.551 11.4805 236.227 12.457 234.273 14.4102C232.75 15.9727 231.988 17.7109 231.988 19.625Z" fill="white"/>
<path d="M259.586 44V20.3281C259.586 18.2969 260.426 16.3633 262.105 14.5273C264.059 12.457 266.539 11.4219 269.547 11.4219V17.6328C267.594 17.6328 266.422 18.4922 266.031 20.2109C265.953 20.5234 265.914 20.8359 265.914 21.1484V44H259.586ZM272.242 17.6328V11.4219C275.055 11.4609 277.359 12.3594 279.156 14.1172C280.992 12.3203 283.297 11.4219 286.07 11.4219V17.6328C284.039 17.6328 282.828 18.4922 282.438 20.2109C282.359 20.5234 282.32 20.8359 282.32 21.1484V44H275.992V21.1484C275.992 19.3906 275.191 18.2773 273.59 17.8086C273.16 17.6914 272.711 17.6328 272.242 17.6328ZM288.707 17.6328V11.4219C292.418 11.4219 295.27 12.9453 297.262 15.9922C298.238 17.5156 298.727 18.9609 298.727 20.3281V44H292.398V21.1484C292.398 19.1172 291.422 17.9648 289.469 17.6914C289.234 17.6523 288.98 17.6328 288.707 17.6328Z" fill="white"/>
</g>
<defs>
<filter id="filter0_di_5_5" x="0.402344" y="0.339844" width="304.324" height="65.0859" filterUnits="userSpaceOnUse" color-interpolation-filters="sRGB">
<feFlood flood-opacity="0" result="BackgroundImageFix"/>
<feColorMatrix in="SourceAlpha" type="matrix" values="0 0 0 0 0 0 0 0 0 0 0 0 0 0 0 0 0 0 127 0" result="hardAlpha"/>
<feOffset dy="4"/>
<feGaussianBlur stdDeviation="3"/>
<feComposite in2="hardAlpha" operator="out"/>
<feColorMatrix type="matrix" values="0 0 0 0 0.922433 0 0 0 0 0.701667 0 0 0 0 1 0 0 0 0.46 0"/>
<feBlend mode="normal" in2="BackgroundImageFix" result="effect1_dropShadow_5_5"/>
<feBlend mode="normal" in="SourceGraphic" in2="effect1_dropShadow_5_5" result="shape"/>
<feColorMatrix in="SourceAlpha" type="matrix" values="0 0 0 0 0 0 0 0 0 0 0 0 0 0 0 0 0 0 127 0" result="hardAlpha"/>
<feOffset dy="4"/>
<feGaussianBlur stdDeviation="4"/>
<feComposite in2="hardAlpha" operator="arithmetic" k2="-1" k3="1"/>
<feColorMatrix type="matrix" values="0 0 0 0 0.803267 0 0 0 0 0.243333 0 0 0 0 1 0 0 0 0.39 0"/>
<feBlend mode="normal" in2="shape" result="effect2_innerShadow_5_5"/>
</filter>
</defs>
</svg>
